<?xml version="1.0" encoding="utf-8"?>
<!-- Generator: Adobe Illustrator 19.2.0, SVG Export Plug-In . SVG Version: 6.00 Build 0)  -->
<svg version="1.1" id="logo" xmlns="http://www.w3.org/2000/svg" xmlns:xlink="http://www.w3.org/1999/xlink" x="0px" y="0px"
	 viewBox="0 0 841.9 595.3" style="enable-background:new 0 0 841.9 595.3;" xml:space="preserve">
<style type="text/css">
	.st0{fill:#FFFFFF;}
</style>
<path class="st0" d="M548.9,325c0,24.6-11.2,42.9-32.1,42.9c-13.5,0-21.2-5.5-26.2-10v-60H474v131.6h16.6v-56.8
	c4.1,3.6,12.3,9.6,27.8,9.6c28.3,0,48.3-23.3,48.3-57.7c0-10.1-1.4-19.1-4-26.7h-19.2C547.2,305.1,548.9,314.5,548.9,325z"/>
<path class="st0" d="M246.5,167.7c-16,0-26.9,9.1-35.3,18.5c-3.6-10.3-12.1-18.5-28-18.5c-18.7,0-28.7,12.3-33.5,18.2v-15.5H133v82
	h16.6v-49.8c2.3-3.2,13.7-19.8,29.6-19.8c12.8,0,17.6,8.7,17.6,22.3v47.3h16.6v-52.6c5.2-6.6,15.7-17.1,29.2-17.1
	c13.9,0,18,9.1,18,22.3v47.3h16.6v-50.5C277.3,182.5,268.7,167.7,246.5,167.7z"/>
<path class="st0" d="M329.4,167.7c-15.3,0-27.8,5-38.5,15l8.9,11.6c9.8-8.7,18.5-11.9,28.5-11.9c15,0,21.9,6.6,21.9,22.8v10.3h-4.8
	c-26.2,0-57.8,8.5-58.3,36.9h17.8c0.2-18.2,17.2-24.5,40.6-24.5h4.8v24.5h16.6v-48.5C366.8,179.1,353.4,167.7,329.4,167.7z"/>
<path class="st0" d="M687.8,297.9c1.5,4,2.2,8.6,2.4,13.2h-56.5c0.8-4.9,2.2-9.3,4.2-13.2H620c-3.3,7.8-5.1,16.7-5.1,26.2
	c0,32.4,17.3,58.1,51.8,58.1c19.8,0,32.1-7.5,37.6-11.2l-6.8-13c-4.8,3-15,9.8-30.3,9.8c-24.6,0-34-20.3-34.4-43.5h74.1
	c0.2-2.7,0.5-5.2,0.5-7.8c0-6.8-0.8-13.1-2.5-18.7h-17.1V297.9z"/>
<rect x="582.6" y="297.9" class="st0" width="16.9" height="81.6"/>
<path class="st0" d="M577.4,177c0-7.5,6-13.5,13.5-13.5s13.5,6,13.5,13.5s-6,13.5-13.5,13.5C583.5,190.5,577.4,184.5,577.4,177z"/>
<path class="st0" d="M473.8,170.3h-35.6c-5.2-1.9-10.7-2.8-16.9-2.8c-25.5,0-41.5,16.5-41.5,38.6c0,15.3,6.8,26,18.2,32.6v0.5
	c-5.2,3-9.6,7.5-11.4,13.3h15.5c0.8-3.6,3.7-6.9,7.8-9.1c3.9,0.9,7.3,1.4,11.4,1.4c25.1,0,42.2-16.3,42.2-38.6
	c0-8.8-2.7-15.6-8.2-22.3h18.5V170.3z M421.8,230.8c-14.8,0-24.9-10.2-24.9-24.7c0-14.7,9.3-24.7,24.4-24.7c15,0,25.1,10,25.1,24.7
	C446.5,220.5,437.1,230.8,421.8,230.8z"/>
</svg>
